<svg xmlns="http://www.w3.org/2000/svg" width="36" height="36" viewBox="0 0 36 36"><defs><clipPath id="mkuea"><path fill="#fff" d="M18-.001c9.94 0 18 8.059 18 18s-8.06 18-18 18c-9.941 0-18-8.059-18-18s8.059-18 18-18z"/></clipPath></defs><g><g><path fill="#fff" d="M18-.001c9.94 0 18 8.059 18 18s-8.06 18-18 18c-9.941 0-18-8.059-18-18s8.059-18 18-18z"/><path fill="none" stroke="#fff" stroke-linecap="round" stroke-linejoin="round" stroke-miterlimit="20" stroke-width="2" d="M18-.001c9.94 0 18 8.059 18 18s-8.06 18-18 18c-9.941 0-18-8.059-18-18s8.059-18 18-18z" clip-path="url(&quot;#mkuea&quot;)"/></g></g></svg>